<?xml version="1.0" encoding="utf-8"?>
<!-- Generator: Adobe Illustrator 25.2.0, SVG Export Plug-In . SVG Version: 6.00 Build 0)  -->
<svg version="1.1" id="_x2018_ëîé_x5F_1" xmlns="http://www.w3.org/2000/svg" xmlns:xlink="http://www.w3.org/1999/xlink"
	 x="0px" y="0px" viewBox="0 0 1036.5 886.5" style="enable-background:new 0 0 1036.5 886.5;" xml:space="preserve">
<style type="text/css">
	.st0{fill:#FFFFFF;stroke:#000000;stroke-miterlimit:10;}
	.st1{fill:#C0C0C0;}
	.st2{fill:#FFFFD5;}
	.st3{fill:#CEB180;}
	.st4{fill:#999966;}
	.st5{fill:#57A0D3;}
	.st6{fill:#800020;}
	.st7{fill:#F5C3C2;}
	.st8{fill:url(#SVGID_1_);}
</style>
<g>
	<g>
		<path class="st0" d="M584.4,799.9l-105.3-73.7c-18.8-13.2-23.4-39.1-10.2-57.9l310.7-443.7c13.2-18.8,39.1-23.4,57.9-10.2
			l105.3,73.7c18.8,13.2,23.4,39.1,10.2,57.9L642.3,789.7C629.1,808.5,603.2,813.1,584.4,799.9z"/>
	</g>
</g>
<g>
	<g>
		<path d="M601,781.9l-116.5-54.3c-20.8-9.7-29.8-34.4-20.1-55.2l228.9-490.9c9.7-20.8,34.4-29.8,55.2-20.1L865,215.6
			c20.8,9.7,29.8,34.4,20.1,55.2L656.2,761.8C646.5,782.6,621.8,791.6,601,781.9z"/>
	</g>
</g>
<g>
	<g>
		<path class="st1" d="M610,756.9l-124.1-33.3c-22.2-5.9-35.3-28.7-29.4-50.9l140.2-523.2c5.9-22.2,28.7-35.3,50.9-29.4l124.1,33.3
			c22.2,5.9,35.3,28.7,29.4,50.9L660.9,727.5C655,749.7,632.2,762.9,610,756.9z"/>
	</g>
</g>
<g>
	<g>
		<path class="st2" d="M621,735.7l-128-11.2c-22.9-2-39.8-22.2-37.8-45l47.2-539.6c2-22.9,22.2-39.8,45-37.8l128,11.2
			c22.9,2,39.8,22.2,37.8,45l-47.2,539.6C664.1,720.8,643.9,737.7,621,735.7z"/>
	</g>
</g>
<g>
	<g>
		<path class="st3" d="M626.4,711.4l-128,11.2c-22.9,2-43-14.9-45-37.8l-47.2-539.6c-2-22.9,14.9-43,37.8-45L572,89
			c22.9-2,43,14.9,45,37.8l47.2,539.6C666.2,689.2,649.3,709.4,626.4,711.4z"/>
	</g>
</g>
<g>
	<g>
		<path class="st4" d="M627.3,686.2l-124.1,33.3c-22.2,5.9-45-7.2-50.9-29.4L312.1,166.9c-5.9-22.2,7.2-45,29.4-50.9l124.1-33.3
			c22.2-5.9,45,7.2,50.9,29.4l140.2,523.2C662.7,657.5,649.5,680.3,627.3,686.2z"/>
	</g>
</g>
<g>
	<g>
		<path class="st5" d="M625.3,660.7L508.8,715c-20.8,9.7-45.5,0.7-55.2-20.1L224.6,204c-9.7-20.8-0.7-45.5,20.1-55.2l116.5-54.3
			c20.8-9.7,45.5-0.7,55.2,20.1l228.9,490.9C655.1,626.3,646.1,651,625.3,660.7z"/>
	</g>
</g>
<g>
	<g>
		<path class="st6" d="M615.3,635.7L510,709.4c-18.8,13.2-44.7,8.6-57.9-10.2L141.4,255.5c-13.2-18.8-8.6-44.7,10.2-57.9l105.3-73.7
			c18.8-13.2,44.7-8.6,57.9,10.2l310.7,443.7C638.7,596.6,634.1,622.6,615.3,635.7z"/>
	</g>
</g>
<g>
	<g>
		<g>
			<path class="st7" d="M604.2,613.4l-90.9,90.9c-16.2,16.2-42.6,16.2-58.8,0l-383-383c-16.2-16.2-16.2-42.6,0-58.8l90.9-90.9
				c16.2-16.2,42.6-16.2,58.8,0l383,383C620.4,570.8,620.4,597.2,604.2,613.4z"/>
		</g>
	</g>
</g>
<radialGradient id="SVGID_1_" cx="482.3476" cy="675.3787" r="16.4249" gradientUnits="userSpaceOnUse">
	<stop  offset="0" style="stop-color:#FFFFFF"/>
	<stop  offset="0.465" style="stop-color:#E3E3E3"/>
	<stop  offset="1" style="stop-color:#CACACA"/>
</radialGradient>
<circle class="st8" cx="482.3" cy="675.4" r="16.4"/>
</svg>
